<?xml version="1.0" standalone="no"?>
<!DOCTYPE svg PUBLIC "-//W3C//DTD SVG 20010904//EN"
 "http://www.w3.org/TR/2001/REC-SVG-20010904/DTD/svg10.dtd">
<svg version="1.0" xmlns="http://www.w3.org/2000/svg"
 width="1280.000000pt" height="640.000000pt" viewBox="0 0 1280.000000 640.000000"
 preserveAspectRatio="xMidYMid meet">
<metadata>
Created by potrace 1.15, written by Peter Selinger 2001-2017
</metadata>
<g transform="translate(0.000000,640.000000) scale(0.100000,-0.100000)"
fill="#000000" stroke="none">
<path d="M9086 6142 c-15 -25 14 -66 84 -120 162 -125 253 -274 319 -527 48
-183 70 -244 119 -322 146 -239 394 -333 635 -243 29 11 114 56 187 100 163
97 204 114 269 108 101 -10 135 -62 236 -358 101 -296 218 -580 242 -588 28
-8 22 30 -17 122 -23 54 -91 233 -151 398 -61 166 -124 328 -140 360 -50 98
-127 158 -205 158 -47 0 -128 -34 -230 -96 -226 -138 -330 -172 -462 -152
-143 22 -296 136 -360 268 -18 37 -51 143 -77 244 -52 211 -101 319 -199 441
-80 100 -236 229 -250 207z"/>
<path d="M4 4895 c-11 -28 25 -63 209 -210 514 -411 875 -615 1260 -714 344
-89 735 -99 1327 -35 256 28 388 32 465 14 121 -27 237 -123 295 -244 55 -115
71 -209 77 -432 l5 -201 -253 -6 c-248 -7 -506 -21 -602 -33 -55 -7 -77 -25
-77 -62 0 -57 1 -57 202 -43 512 34 940 36 1858 6 1041 -35 1455 -39 3414 -38
2156 2 1996 7 2050 -57 14 -17 33 -55 41 -83 19 -69 51 -329 66 -549 15 -232
7 -862 -15 -1098 -17 -176 -62 -556 -71 -597 -5 -20 -13 -21 -117 -27 -62 -3
-363 -10 -668 -16 -305 -6 -760 -15 -1010 -20 -1299 -27 -2759 -54 -3851 -71
-937 -15 -1241 -6 -1614 47 -168 24 -197 46 -227 175 -18 77 -16 382 5 779 9
184 24 508 33 720 8 212 18 446 23 520 4 74 5 142 3 151 -6 26 -47 41 -77 27
-13 -6 -27 -18 -30 -27 -9 -31 -38 -594 -75 -1499 -23 -533 -20 -622 21 -754
50 -157 127 -192 519 -232 374 -39 650 -41 2025 -16 1418 27 2698 51 3125 60
261 5 808 17 1215 25 407 9 750 18 762 20 12 3 27 13 32 23 10 20 54 336 76
557 54 535 57 975 10 1517 -27 309 -57 407 -147 483 -74 63 80 59 -1993 56
-1938 -2 -2408 3 -3510 39 -330 11 -702 20 -827 20 l-228 0 0 123 c0 137 -20
288 -51 392 -65 217 -228 400 -406 455 -130 40 -184 38 -703 -20 -156 -18
-610 -24 -756 -11 -275 25 -539 99 -787 219 -257 124 -476 271 -838 564 -81
65 -154 118 -163 118 -9 0 -19 -7 -22 -15z"/>
<path d="M11465 4275 c-110 -31 -145 -57 -125 -95 14 -26 38 -32 69 -16 52 27
149 46 238 46 196 0 360 -79 557 -269 315 -305 494 -677 513 -1066 6 -127 -1
-245 -15 -245 -4 0 -16 18 -26 41 -52 106 -113 155 -163 128 -37 -20 -62 -82
-63 -154 l-1 -60 -30 35 c-17 19 -62 79 -101 132 -84 118 -118 148 -164 148
-45 0 -64 -30 -72 -117 l-7 -68 -57 95 c-31 52 -83 144 -115 205 -66 124 -90
143 -143 113 l-29 -17 -29 77 c-16 42 -33 88 -37 102 -19 64 -77 81 -114 33
-12 -14 -23 -24 -25 -22 -8 8 -35 165 -42 243 -8 89 -25 116 -72 116 -31 0
-62 -27 -62 -53 0 -9 -4 -17 -9 -17 -5 0 -14 37 -20 83 -7 45 -14 97 -17 115
-6 41 -43 67 -83 59 -29 -6 -30 -6 -24 31 8 60 31 123 60 165 25 36 26 41 12
65 -20 37 -46 34 -80 -8 -140 -173 -85 -604 124 -969 282 -492 715 -812 1102
-814 125 -1 192 22 263 91 91 90 117 181 116 412 0 130 -5 186 -22 266 -71
329 -236 626 -492 884 -157 159 -308 255 -470 299 -88 25 -265 27 -345 6z
m-28 -1157 c16 -48 25 -84 21 -82 -5 3 -29 40 -53 82 -45 76 -45 77 -23 83 13
3 24 5 25 4 1 0 15 -40 30 -87z m278 -286 c83 -158 118 -202 157 -202 18 0 41
9 53 20 l22 21 28 -43 c16 -24 48 -69 72 -100 24 -32 40 -58 36 -58 -18 0
-171 93 -239 146 -40 30 -109 91 -153 136 l-81 80 26 21 c21 16 25 27 22 53
-2 19 -3 34 -2 34 2 0 28 -49 59 -108z m562 -249 c33 -43 84 -102 112 -131 28
-29 51 -56 51 -59 0 -7 -131 4 -154 13 -9 3 -16 16 -16 28 0 11 -11 55 -24 96
-27 86 -38 130 -33 130 2 0 31 -35 64 -77z m345 -105 c-8 -8 -14 -4 -22 16
-15 39 -13 43 11 17 15 -16 18 -26 11 -33z"/>
<path d="M11312 4108 c-24 -24 -9 -46 101 -146 62 -56 153 -147 203 -202 63
-72 95 -100 112 -100 29 0 38 24 19 53 -43 65 -392 407 -416 407 -4 0 -12 -5
-19 -12z"/>
<path d="M3030 2741 c-72 -12 -77 -22 -85 -168 -9 -159 -6 -164 104 -183 101
-17 167 1 211 57 21 26 22 35 16 128 -8 116 -18 148 -52 164 -26 11 -133 13
-194 2z m178 -77 c3 -18 -1 -20 -27 -16 -24 3 -37 -2 -59 -25 -16 -15 -31 -33
-33 -39 -2 -6 -24 -14 -48 -17 l-44 -5 6 55 c3 31 12 60 19 65 7 4 51 7 98 6
78 -3 85 -5 88 -24z"/>
<path d="M3560 2743 c-66 -8 -76 -28 -83 -165 -6 -119 -1 -152 27 -170 20 -14
215 -9 251 6 46 20 55 42 55 138 -1 170 -21 199 -139 196 -42 0 -92 -3 -111
-5z m180 -72 c15 -28 13 -31 -17 -31 -16 0 -43 -9 -61 -20 -18 -11 -38 -18
-43 -14 -6 3 -26 6 -45 6 -32 0 -34 2 -34 33 0 18 6 36 13 38 6 3 49 6 94 6
72 1 84 -2 93 -18z"/>
<path d="M3935 2741 c-56 -11 -75 -31 -75 -79 0 -24 -7 -57 -16 -74 -10 -20
-14 -42 -9 -62 3 -17 8 -46 12 -64 8 -51 34 -62 146 -62 109 0 156 14 182 54
15 23 16 39 7 138 -8 103 -11 113 -36 135 -24 20 -37 23 -104 22 -42 -1 -90
-4 -107 -8z m183 -73 c3 -15 -4 -18 -34 -18 -27 0 -46 -7 -64 -25 -26 -25 -26
-25 -68 -8 -31 13 -42 24 -42 40 0 28 16 31 120 30 72 -2 85 -5 88 -19z"/>
<path d="M4309 2743 c-65 -7 -76 -31 -84 -174 -7 -121 -6 -128 14 -148 18 -18
33 -21 115 -21 120 0 150 6 182 39 26 26 26 27 20 131 -9 135 -13 148 -47 165
-27 14 -110 17 -200 8z m176 -63 c4 -6 9 -36 11 -68 5 -56 5 -56 -11 -30 -32
56 -71 61 -151 18 l-57 -30 7 52 c4 29 13 56 19 60 18 12 175 9 182 -2z m10
-196 c-23 -36 -29 -24 -8 17 9 18 18 28 21 21 2 -7 -4 -24 -13 -38z"/>
<path d="M4680 2743 c-19 -3 -44 -14 -56 -27 -20 -20 -23 -34 -26 -148 -4
-172 -5 -171 154 -166 100 3 121 6 145 24 26 20 28 26 31 105 4 114 -5 167
-33 195 -22 22 -32 24 -102 22 -43 0 -94 -3 -113 -5z m178 -65 c7 -7 12 -29
12 -51 l0 -38 -26 20 c-31 25 -55 26 -93 6 -64 -33 -96 -98 -71 -146 8 -15 7
-19 -4 -19 -25 0 -28 18 -21 125 6 84 10 105 24 108 37 10 168 6 179 -5z"/>
<path d="M5190 2743 c-64 -8 -76 -32 -83 -170 -5 -112 -4 -124 14 -147 20 -25
25 -26 125 -26 113 0 165 14 183 48 13 24 14 158 2 222 -13 66 -37 80 -130 78
-42 0 -92 -3 -111 -5z m180 -72 c5 -11 10 -34 10 -51 0 -30 -1 -31 -22 -16
-41 29 -77 20 -129 -33 -41 -40 -49 -54 -49 -85 0 -25 -4 -35 -11 -30 -15 9
-2 216 14 226 7 4 49 8 94 8 71 0 84 -3 93 -19z"/>
<path d="M5565 2741 c-69 -14 -74 -24 -81 -173 -7 -134 -7 -135 17 -151 31
-22 203 -24 254 -3 60 25 68 49 57 177 -9 104 -11 114 -36 136 -24 20 -37 23
-104 22 -42 -1 -91 -4 -107 -8z m178 -58 c3 -5 8 -32 12 -62 l7 -55 -33 28
c-26 23 -40 27 -67 22 -19 -3 -40 -11 -48 -17 -24 -20 -46 -81 -42 -117 4 -28
1 -32 -16 -30 -16 2 -21 10 -20 31 0 15 1 65 2 111 2 71 5 85 20 89 29 8 181
7 185 0z"/>
<path d="M5939 2743 c-67 -7 -77 -30 -81 -181 -3 -153 1 -162 77 -162 23 0 56
-5 74 -11 25 -9 41 -7 82 7 28 10 62 29 75 41 21 20 24 30 23 100 0 114 -12
173 -39 195 -22 18 -105 22 -211 11z m181 -72 c5 -11 10 -39 10 -62 0 -34 -3
-40 -12 -31 -7 7 -30 12 -51 12 -32 0 -45 -6 -73 -37 -19 -20 -37 -52 -40 -70
-5 -24 -11 -33 -23 -31 -14 3 -16 19 -14 112 1 77 6 112 15 117 7 5 50 9 95 9
71 0 84 -3 93 -19z"/>
<path d="M6315 2741 c-17 -3 -41 -13 -53 -22 -22 -16 -24 -26 -29 -148 -8
-173 -9 -171 136 -171 81 0 114 4 141 18 54 27 62 52 51 178 -9 99 -12 111
-36 131 -23 20 -37 23 -103 22 -42 -1 -91 -4 -107 -8z m179 -67 c11 -28 6 -32
-23 -21 -19 7 -40 7 -62 1 -28 -8 -39 -21 -66 -74 -18 -36 -33 -80 -33 -98 0
-23 -4 -32 -12 -29 -13 4 -14 13 -10 151 2 87 -3 83 118 85 66 1 83 -2 88 -15z"/>
<path d="M6820 2743 c-59 -7 -70 -29 -79 -154 -13 -183 -9 -189 135 -191 130
-1 182 20 196 78 3 11 1 67 -3 125 -7 95 -10 106 -34 127 -23 19 -36 22 -103
20 -42 0 -93 -3 -112 -5z m184 -69 c13 -35 8 -43 -23 -31 -42 16 -71 -1 -122
-69 -31 -40 -43 -66 -43 -90 0 -34 -9 -44 -21 -24 -4 6 -3 57 1 115 8 120 0
112 120 114 66 1 83 -2 88 -15z"/>
<path d="M7200 2741 c-72 -12 -77 -22 -85 -168 -7 -125 -6 -132 14 -152 19
-19 32 -21 121 -21 180 0 207 26 196 183 -8 109 -19 140 -52 156 -26 11 -133
13 -194 2z m178 -72 c2 -12 -5 -14 -32 -11 -29 3 -40 -1 -63 -26 -63 -67 -85
-105 -81 -144 3 -30 0 -38 -13 -38 -24 0 -25 7 -18 121 4 70 10 104 20 110 8
5 52 8 99 7 67 -2 85 -6 88 -19z"/>
<path d="M7570 2743 c-19 -3 -44 -14 -56 -27 -20 -20 -23 -34 -26 -148 -3
-119 -2 -129 18 -149 19 -19 34 -21 115 -22 104 -2 161 13 184 46 17 25 21
166 5 232 -14 61 -38 75 -129 73 -42 0 -92 -3 -111 -5z m180 -72 c5 -11 10
-31 10 -45 0 -25 0 -25 -28 -9 -32 19 -74 12 -97 -15 -63 -72 -75 -92 -75
-123 0 -24 -3 -30 -11 -22 -8 8 -9 44 -4 117 8 120 1 113 117 115 67 1 79 -2
88 -18z"/>
<path d="M7945 2741 c-17 -3 -40 -13 -53 -22 -21 -15 -23 -26 -29 -152 l-6
-135 26 -17 c40 -26 199 -26 252 0 60 30 67 53 56 181 -9 99 -12 111 -36 131
-23 20 -37 23 -103 22 -42 -1 -91 -4 -107 -8z m180 -78 c17 -78 18 -73 -12
-57 -51 26 -90 14 -136 -42 -33 -39 -48 -79 -40 -100 4 -12 2 -15 -8 -12 -14
5 -15 11 -11 152 2 87 -3 83 119 85 82 1 83 1 88 -26z"/>
<path d="M9110 2743 c-19 -3 -44 -14 -56 -27 -20 -20 -23 -34 -26 -148 -4
-158 -1 -162 107 -171 85 -8 163 6 197 33 28 22 53 100 44 138 -4 15 -13 53
-19 86 -17 82 -38 96 -136 94 -42 0 -92 -3 -111 -5z m178 -65 c20 -20 15 -48
-9 -48 -22 0 -122 -65 -152 -98 -10 -11 -19 -34 -19 -51 -1 -31 -11 -40 -23
-21 -4 6 -3 57 1 115 5 83 10 105 23 108 37 10 168 6 179 -5z"/>
<path d="M9485 2741 c-68 -14 -73 -24 -81 -168 -6 -122 -5 -132 13 -150 40
-40 218 -38 280 2 39 26 45 50 38 153 -7 114 -18 145 -51 161 -26 11 -147 13
-199 2z m183 -77 c3 -18 -1 -21 -21 -17 -32 6 -169 -112 -185 -159 l-12 -33 5
40 c3 22 5 72 5 112 0 84 -4 82 120 80 78 -2 85 -4 88 -23z"/>
<path d="M9860 2743 c-66 -8 -76 -28 -83 -164 -9 -176 -4 -183 145 -182 161 2
188 23 188 148 -1 178 -20 206 -139 203 -42 0 -92 -3 -111 -5z m180 -72 c5
-11 10 -29 10 -40 0 -18 -3 -19 -26 -11 -40 16 -61 12 -96 -18 -28 -24 -79
-52 -93 -52 -10 0 9 125 19 132 6 4 48 8 93 8 71 0 84 -3 93 -19z"/>
<path d="M3047 2139 c-89 -13 -94 -21 -102 -175 l-7 -131 27 -21 c23 -18 41
-22 107 -22 103 0 163 15 189 49 19 24 20 34 14 131 -4 57 -11 115 -16 128
-18 46 -87 59 -212 41z m151 -61 c6 -7 13 -29 17 -49 l7 -37 -46 5 c-33 4 -51
1 -64 -9 -9 -9 -27 -19 -38 -22 -34 -10 -58 -44 -58 -82 0 -19 -5 -33 -10 -31
-11 4 -11 115 0 189 6 37 6 37 57 41 108 7 125 7 135 -5z"/>
<path d="M3415 2139 c-90 -13 -95 -22 -102 -175 -6 -164 -7 -163 111 -175 80
-8 93 -7 144 14 76 30 84 48 77 162 -9 123 -19 154 -61 171 -37 15 -78 16
-169 3z m146 -59 c12 -7 19 -21 19 -40 0 -25 -4 -30 -24 -30 -22 0 -73 -32
-123 -79 -15 -13 -23 -32 -23 -51 0 -27 -3 -31 -22 -28 -18 2 -23 9 -22 31 0
15 1 65 2 112 l2 84 58 4 c31 2 70 4 85 5 16 1 37 -3 48 -8z"/>
<path d="M3785 2139 c-86 -13 -92 -22 -101 -161 -3 -64 -4 -127 -1 -140 9 -35
47 -48 135 -48 88 0 140 12 174 39 22 19 23 25 20 131 -1 61 -7 122 -12 136
-19 48 -86 62 -215 43z m153 -61 c5 -7 13 -37 17 -67 l7 -55 -32 27 c-37 32
-71 34 -114 8 -17 -10 -41 -22 -54 -26 -22 -6 -23 -5 -20 52 l3 58 55 6 c96
10 127 9 138 -3z"/>
<path d="M4155 2139 c-90 -13 -94 -21 -101 -175 -8 -168 -8 -168 113 -172 97
-4 158 8 195 37 22 18 23 25 21 123 -3 134 -10 159 -54 180 -36 19 -79 21
-174 7z m146 -59 c31 -17 24 -40 -13 -40 -24 0 -43 -12 -86 -55 -52 -52 -54
-57 -49 -95 5 -37 3 -40 -18 -40 -13 0 -26 3 -28 8 -3 4 -2 54 2 112 l6 105
55 6 c91 10 110 9 131 -1z"/>
<path d="M4525 2139 c-89 -13 -93 -21 -101 -175 -7 -129 -6 -131 17 -154 13
-12 38 -31 54 -41 30 -19 30 -19 5 -19 -14 0 -35 -9 -47 -19 -20 -16 -22 -31
-29 -152 -6 -130 -6 -135 16 -154 19 -17 36 -20 124 -20 187 0 216 38 188 240
-13 94 -37 115 -130 115 -62 1 -65 2 -42 14 14 7 43 17 65 21 56 10 94 32 106
61 10 28 2 204 -12 242 -17 46 -87 59 -214 41z m153 -62 c6 -7 14 -39 18 -71
l7 -58 -26 26 c-39 39 -79 35 -144 -15 l-54 -40 3 78 3 78 55 6 c97 10 127 9
138 -4z m-4 -383 c10 -4 16 -18 16 -35 0 -24 -4 -29 -25 -29 -14 0 -36 -10
-48 -23 -12 -13 -37 -29 -55 -36 -38 -16 -55 -43 -54 -84 0 -21 -3 -27 -16
-25 -11 2 -17 13 -16 31 0 15 1 65 2 111 l2 85 33 4 c55 7 145 7 161 1z"/>
<path d="M4897 2139 c-89 -13 -94 -22 -103 -175 l-7 -130 28 -22 c23 -19 41
-22 109 -22 98 0 150 13 184 47 24 24 25 27 18 129 -8 129 -16 151 -61 169
-37 16 -79 17 -168 4z m148 -59 c4 -6 -5 -10 -20 -10 -26 0 -46 -17 -96 -84
-31 -41 -39 -102 -17 -124 9 -9 4 -12 -24 -12 -20 0 -39 3 -41 8 -2 4 -1 54 2
112 l6 105 55 6 c92 10 129 9 135 -1z"/>
<path d="M5265 2139 c-86 -13 -92 -22 -101 -161 -3 -64 -4 -127 0 -141 9 -38
52 -50 158 -45 105 5 153 23 169 66 12 31 4 197 -11 237 -19 49 -85 63 -215
44z m154 -63 c10 -12 6 -15 -18 -21 -26 -6 -59 -27 -123 -80 -24 -20 -33 -63
-20 -97 9 -26 8 -28 -13 -28 -13 0 -26 3 -28 8 -2 4 -1 54 2 112 l6 105 55 6
c99 10 127 9 139 -5z"/>
<path d="M5637 2139 c-89 -13 -94 -22 -103 -175 l-7 -130 28 -22 c23 -18 41
-22 107 -22 103 0 163 15 189 49 20 24 21 34 14 130 -3 57 -11 115 -16 128
-18 47 -86 61 -212 42z m150 -61 c6 -7 13 -26 17 -41 6 -26 5 -27 -13 -18 -33
18 -62 12 -117 -24 -57 -38 -71 -64 -60 -116 5 -25 3 -30 -11 -27 -15 3 -17
15 -14 95 4 136 0 127 62 134 94 10 126 9 136 -3z"/>
<path d="M6007 2139 c-88 -13 -93 -22 -102 -171 l-7 -127 26 -25 c23 -24 33
-26 106 -26 105 0 165 15 191 49 20 24 21 34 14 135 -3 61 -11 118 -16 129
-23 42 -91 54 -212 36z m150 -61 c6 -7 13 -21 17 -32 5 -15 2 -17 -19 -12 -43
11 -70 -3 -125 -66 -36 -41 -53 -69 -54 -89 -1 -16 -4 -29 -8 -29 -10 0 -10
120 -2 183 l7 46 51 4 c107 7 124 7 133 -5z"/>
<path d="M6383 2139 c-94 -12 -99 -20 -107 -171 -7 -127 -7 -127 18 -153 23
-23 33 -25 106 -25 105 0 165 15 191 49 20 24 21 34 15 134 -3 59 -11 117 -17
128 -23 44 -81 55 -206 38z m145 -58 c8 -4 16 -27 19 -51 6 -41 5 -42 -17 -30
-60 32 -145 -33 -145 -111 0 -36 -2 -39 -27 -39 -28 0 -28 1 -28 63 0 34 3 85
6 114 l7 52 51 4 c100 7 121 7 134 -2z"/>
<path d="M6747 2139 c-88 -13 -93 -22 -102 -171 l-7 -127 26 -25 c23 -24 33
-26 106 -26 105 0 165 15 191 49 20 24 21 34 15 134 -3 59 -11 117 -17 128
-23 44 -90 56 -212 38z m153 -59 c12 -7 8 -10 -15 -10 -56 0 -180 -158 -161
-205 3 -9 -1 -15 -9 -15 -17 0 -20 80 -9 177 l7 52 51 4 c102 7 121 7 136 -3z"/>
<path d="M7129 2141 c-30 -4 -67 -16 -82 -26 -23 -15 -27 -24 -27 -64 0 -25
-3 -83 -6 -128 -7 -78 -6 -82 19 -107 24 -24 33 -26 107 -26 150 0 203 27 214
110 18 125 18 126 2 139 -9 8 -16 22 -16 32 0 10 -10 30 -22 44 -19 21 -34 27
-78 30 -30 2 -80 0 -111 -4z m136 -61 c3 -5 0 -10 -7 -10 -15 0 -104 -88 -132
-130 -9 -13 -16 -39 -16 -57 0 -26 -4 -33 -20 -33 -18 0 -20 7 -20 54 0 29 3
81 6 114 l7 61 51 4 c105 7 125 7 131 -3z"/>
<path d="M7499 2141 c-30 -4 -67 -16 -82 -26 -24 -16 -27 -23 -27 -79 0 -33
-3 -91 -6 -128 -6 -62 -5 -68 19 -92 24 -24 33 -26 109 -26 97 0 154 13 187
43 23 21 23 25 18 141 -5 109 -7 121 -29 143 -28 28 -97 37 -189 24z m137 -59
c6 -4 13 -15 17 -25 5 -14 2 -16 -18 -11 -41 10 -71 -3 -119 -53 -49 -52 -64
-90 -46 -122 9 -18 8 -21 -10 -21 -23 0 -25 21 -14 153 l7 76 51 4 c99 7 121
7 132 -1z"/>
<path d="M8035 2139 c-220 -9 -260 -16 -269 -48 -3 -9 -6 -71 -8 -138 -4 -163
-10 -157 170 -161 75 -2 235 1 354 6 289 12 285 9 273 189 -6 87 -11 108 -29
130 -22 25 -27 26 -147 29 -68 1 -223 -2 -344 -7z m286 -88 c-19 -23 -44 -42
-61 -46 -49 -11 -80 -42 -80 -81 0 -20 5 -44 10 -55 11 -19 7 -19 -182 -17
l-193 3 -3 50 c-2 28 -1 78 3 112 l7 62 141 4 c78 1 198 4 265 5 l124 2 -31
-39z m164 22 c4 -10 9 -53 12 -96 7 -95 -6 -117 -71 -117 l-41 1 27 20 c65 48
90 147 48 189 -19 19 -19 20 -1 20 10 0 22 -8 26 -17z"/>
<path d="M8857 2139 c-89 -13 -94 -21 -102 -175 l-7 -131 27 -21 c23 -18 41
-22 107 -22 103 0 163 15 189 49 20 24 21 34 15 129 -8 126 -16 149 -61 167
-37 16 -79 17 -168 4z m161 -82 c17 -35 11 -43 -19 -27 -31 17 -91 -2 -123
-40 -30 -36 -42 -90 -27 -119 11 -19 9 -21 -14 -21 -25 0 -25 1 -25 78 0 42 3
94 6 114 6 36 7 37 58 41 109 8 130 4 144 -26z"/>
<path d="M9227 2139 c-88 -13 -93 -22 -101 -171 -7 -127 -7 -127 18 -153 23
-23 32 -25 113 -24 163 1 205 30 206 141 0 67 -13 154 -27 177 -23 36 -94 47
-209 30z m151 -61 c20 -20 14 -35 -17 -41 -43 -9 -105 -104 -99 -152 l4 -35
-43 0 -43 0 0 63 c0 34 3 85 6 114 l7 52 51 4 c106 7 122 7 134 -5z"/>
<path d="M9609 2141 c-30 -4 -67 -16 -82 -26 -24 -15 -27 -24 -27 -70 0 -28
-3 -86 -6 -128 -6 -72 -6 -76 19 -101 24 -24 33 -26 109 -26 96 0 154 13 186
43 19 18 22 30 21 96 0 105 -12 169 -36 192 -23 24 -99 32 -184 20z m137 -59
c6 -4 14 -17 18 -29 6 -20 4 -21 -32 -16 -35 5 -44 1 -81 -33 -52 -46 -74 -87
-69 -125 4 -23 1 -29 -14 -29 -15 0 -18 8 -18 54 0 29 3 81 6 114 l7 61 51 4
c99 7 121 7 132 -1z"/>
<path d="M9979 2141 c-30 -4 -67 -16 -82 -26 -26 -16 -27 -22 -29 -109 -4
-169 -4 -177 21 -197 18 -15 40 -19 105 -19 139 1 206 30 206 91 0 14 7 32 15
39 22 18 19 82 -5 113 -11 14 -20 34 -20 44 0 11 -11 30 -24 42 -27 26 -98 34
-187 22z m141 -61 c8 -5 12 -10 10 -12 -3 -2 -23 -16 -45 -31 -23 -15 -58 -44
-79 -66 -34 -35 -38 -44 -34 -80 3 -39 2 -41 -24 -41 -26 0 -28 3 -28 38 0 22
3 73 6 115 l7 76 51 4 c101 7 121 7 136 -3z"/>
<path d="M3035 1751 c-77 -12 -82 -20 -90 -166 -7 -122 -6 -132 13 -155 20
-24 24 -25 127 -23 180 4 200 25 189 192 -6 97 -9 108 -35 133 -25 26 -33 28
-96 26 -37 0 -86 -4 -108 -7z m173 -84 c3 -25 1 -28 -16 -23 -37 12 -72 -6
-113 -58 -36 -45 -40 -56 -36 -89 5 -36 4 -38 -21 -35 -27 3 -27 3 -24 78 1
41 5 92 8 112 6 43 16 46 129 44 69 -1 70 -1 73 -29z"/>
<path d="M3405 1751 c-80 -13 -85 -21 -92 -172 -5 -130 -5 -135 17 -154 19
-18 34 -20 127 -17 112 2 151 15 178 56 14 20 15 40 6 136 -12 144 -20 154
-124 156 -39 1 -90 -1 -112 -5z m163 -63 c8 -11 23 -78 17 -78 -1 0 -16 7 -33
15 -43 22 -74 11 -123 -42 -38 -41 -41 -48 -35 -85 6 -34 4 -39 -11 -36 -13 2
-18 12 -17 36 0 17 1 68 2 111 l2 80 33 4 c75 9 155 7 165 -5z"/>
<path d="M3775 1751 c-79 -12 -83 -20 -91 -172 -6 -124 -5 -135 12 -150 30
-24 109 -40 139 -29 15 6 42 10 62 10 49 0 99 26 113 59 8 19 8 58 2 135 -12
139 -21 150 -125 152 -39 1 -90 -1 -112 -5z m165 -66 c7 -8 15 -55 18 -103 4
-73 2 -90 -12 -101 -19 -16 -21 -8 -5 20 17 32 1 78 -34 100 -41 25 -77 19
-128 -22 l-39 -31 0 71 0 70 33 4 c83 10 155 7 167 -8z"/>
<path d="M4145 1751 c-79 -12 -84 -21 -91 -169 -6 -115 -5 -134 10 -150 24
-27 88 -46 128 -38 18 4 54 10 79 14 54 9 96 34 110 66 7 15 7 57 0 131 -12
139 -21 149 -124 151 -39 1 -90 -1 -112 -5z m164 -65 c19 -23 27 -189 10 -203
-12 -9 -13 -4 -11 32 3 38 0 48 -23 70 -41 37 -85 34 -135 -11 l-40 -36 0 75
0 76 33 4 c81 10 155 7 166 -7z"/>
<path d="M4885 1751 c-78 -12 -83 -20 -90 -166 -7 -122 -6 -132 13 -155 20
-24 24 -25 127 -22 183 4 204 27 188 199 -9 97 -12 109 -37 130 -23 20 -37 23
-94 21 -37 0 -85 -4 -107 -7z m172 -66 c2 -6 -14 -10 -38 -10 -33 0 -46 -6
-63 -27 -78 -97 -89 -126 -66 -169 9 -16 7 -19 -14 -19 -14 0 -27 3 -29 8 -2
4 -1 54 2 112 l6 105 30 6 c45 10 168 5 172 -6z"/>
<path d="M5255 1751 c-78 -12 -83 -20 -91 -171 -6 -131 -6 -136 16 -155 19
-18 34 -20 127 -17 187 4 213 38 183 242 -13 90 -37 111 -128 108 -37 0 -85
-4 -107 -7z m173 -68 c2 -8 -5 -13 -16 -13 -32 0 -75 -43 -102 -100 -20 -44
-22 -56 -13 -81 l12 -30 -47 3 c-41 3 -47 6 -46 26 0 12 1 62 2 111 l2 90 33
4 c66 9 170 2 175 -10z"/>
<path d="M5625 1751 c-77 -12 -82 -20 -90 -166 -7 -122 -6 -132 13 -155 20
-24 24 -25 127 -22 182 4 200 22 190 185 -7 104 -9 113 -35 139 -26 26 -34 28
-97 26 -37 0 -86 -4 -108 -7z m173 -82 c3 -22 -1 -26 -26 -26 -30 0 -106 -41
-149 -81 -20 -19 -24 -31 -21 -63 2 -21 0 -39 -4 -39 -5 0 -8 6 -9 13 -3 31 2
165 7 189 6 31 24 36 129 34 67 -1 70 -2 73 -27z"/>
<path d="M5994 1753 c-70 -7 -81 -27 -89 -173 -6 -117 -5 -127 13 -150 19 -24
24 -25 126 -23 116 3 167 18 187 54 14 27 5 215 -12 253 -20 43 -75 53 -225
39z m174 -80 c3 -20 -1 -23 -31 -23 -25 0 -47 -10 -76 -32 -22 -18 -50 -40
-63 -49 -18 -13 -23 -26 -23 -63 0 -25 -3 -46 -7 -46 -10 0 -10 120 -2 183 8
53 13 55 129 53 65 -1 70 -3 73 -23z"/>
<path d="M6365 1753 c-71 -8 -81 -26 -89 -168 -5 -82 -3 -131 4 -144 19 -37
124 -52 219 -32 68 14 99 34 107 67 7 28 -2 194 -12 232 -13 46 -81 59 -229
45z m175 -79 c16 -41 13 -45 -29 -38 -38 6 -43 4 -100 -51 -40 -38 -63 -69
-69 -93 -9 -35 -10 -33 -11 28 0 36 2 88 5 117 8 59 7 59 127 62 64 1 68 0 77
-25z"/>
<path d="M6734 1753 c-70 -7 -81 -27 -89 -175 -7 -120 -6 -127 14 -147 12 -12
29 -21 39 -21 9 0 30 -8 45 -19 l28 -18 -41 -7 c-70 -11 -77 -24 -84 -168 -7
-127 -7 -127 18 -153 18 -18 36 -25 64 -25 22 0 52 -6 67 -14 26 -14 26 -14
-38 -21 -97 -11 -103 -21 -112 -177 -9 -158 -7 -162 113 -172 96 -8 160 5 198
41 27 25 27 25 20 131 -3 59 -9 117 -12 130 -7 25 -51 52 -86 52 -20 0 -19 2
11 23 19 12 48 35 64 50 l30 28 -7 112 c-8 129 -18 151 -76 167 -48 13 -44 25
15 50 62 27 69 45 61 167 -7 116 -17 146 -53 162 -23 10 -99 12 -189 4z m171
-63 c3 -5 9 -33 12 -62 6 -51 5 -53 -13 -36 -28 24 -70 32 -104 18 -27 -11
-39 -31 -83 -130 -11 -23 -12 -20 -15 30 -2 30 -1 83 3 117 6 57 8 62 33 66
55 8 161 7 167 -3z m-14 -380 c25 -14 26 -50 2 -44 -10 2 -29 -2 -43 -9 -23
-12 -77 -91 -101 -149 -6 -17 -19 -28 -30 -28 -17 0 -19 8 -19 63 0 34 3 85 6
114 l7 52 56 4 c31 2 66 4 79 5 13 1 32 -3 43 -8z m17 -407 c3 -20 -1 -23 -28
-23 -44 0 -137 -97 -146 -152 -4 -23 -12 -38 -20 -38 -15 0 -19 98 -8 183 8
54 11 56 119 54 75 -2 80 -3 83 -24z"/>
<path d="M7105 1753 c-71 -8 -81 -26 -89 -168 -5 -82 -3 -131 4 -144 13 -24
82 -45 123 -37 16 3 47 1 68 -5 32 -10 42 -9 71 8 18 10 48 41 66 68 29 45 32
47 32 23 0 -78 37 -98 175 -94 149 4 186 51 165 206 -16 115 -17 118 -53 136
-25 14 -49 15 -132 10 -134 -10 -145 -19 -145 -129 l0 -80 -25 47 c-14 26 -25
60 -25 76 0 81 -55 101 -235 83z m176 -80 c10 -27 0 -42 -28 -43 -22 0 -103
-113 -103 -142 0 -26 -3 -28 -40 -28 l-40 0 0 63 c0 34 3 85 6 114 8 59 7 59
127 62 65 1 68 0 78 -26z m370 1 c11 -31 13 -28 -31 -40 -46 -13 -120 -102
-120 -145 0 -27 -3 -30 -27 -27 -35 4 -37 16 -28 134 8 106 -1 100 128 103 64
1 68 0 78 -25z"/>
<path d="M7845 1751 c-80 -13 -85 -21 -92 -172 -5 -130 -5 -135 17 -154 19
-18 34 -20 127 -17 113 2 151 15 179 57 14 21 14 39 6 136 -13 143 -21 153
-125 155 -39 1 -90 -1 -112 -5z m163 -63 c7 -7 12 -20 12 -30 0 -14 -6 -16
-30 -12 -48 10 -74 -2 -119 -58 -37 -45 -42 -58 -39 -91 3 -30 0 -37 -12 -35
-10 2 -15 14 -14 36 0 17 1 68 2 111 l2 80 33 4 c73 9 153 7 165 -5z"/>
<path d="M8844 1753 c-70 -7 -81 -28 -89 -173 -7 -116 -6 -127 13 -150 19 -24
24 -25 123 -23 158 4 186 18 201 101 5 26 12 60 15 76 3 18 0 42 -10 60 -8 17
-20 45 -27 62 -6 17 -23 36 -36 43 -24 10 -99 12 -190 4z m166 -63 c0 -5 -5
-10 -11 -10 -10 0 -42 -25 -126 -99 -26 -23 -32 -88 -11 -109 9 -9 5 -12 -20
-12 l-32 0 0 78 c0 121 8 150 39 155 56 9 161 7 161 -3z"/>
<path d="M9215 1753 c-71 -8 -81 -26 -89 -168 -5 -83 -4 -130 3 -144 23 -42
187 -55 265 -21 63 27 70 45 63 166 -7 114 -18 147 -54 163 -23 11 -103 12
-188 4z m176 -84 c6 -25 4 -27 -31 -33 -30 -5 -47 -17 -84 -62 -31 -38 -46
-66 -46 -85 0 -24 -4 -29 -25 -29 -24 0 -25 2 -25 63 0 34 3 85 6 114 8 60 11
61 128 59 66 -1 70 -2 77 -27z"/>
<path d="M9585 1753 c-71 -8 -81 -26 -89 -168 -5 -82 -3 -131 4 -144 16 -31
74 -42 178 -32 101 9 138 26 148 67 8 30 -1 210 -12 237 -16 41 -87 54 -229
40z m173 -75 c2 -11 -3 -18 -13 -18 -28 0 -73 -29 -81 -52 -3 -13 -15 -35 -25
-50 -11 -14 -19 -42 -19 -62 0 -34 -1 -36 -35 -36 l-35 0 0 54 c0 29 3 80 6
114 8 70 8 70 129 68 58 -1 70 -4 73 -18z"/>
<path d="M9949 1753 c-21 -2 -45 -13 -56 -26 -19 -21 -21 -40 -25 -327 -3
-168 -3 -316 1 -330 9 -33 56 -49 146 -49 88 1 142 17 167 50 18 24 19 39 12
334 -7 304 -7 309 -30 332 -21 20 -32 23 -101 21 -43 -1 -94 -3 -114 -5z m176
-64 c6 -6 11 -90 13 -195 l3 -186 -23 8 c-31 11 -77 7 -94 -7 -17 -14 -84
-152 -84 -174 0 -9 5 -25 10 -36 9 -16 7 -19 -11 -19 l-22 0 7 302 c4 167 10
305 12 307 20 20 169 20 189 0z m11 -575 c-10 -14 -20 -23 -23 -21 -2 3 3 17
13 31 9 15 19 24 22 22 2 -3 -3 -17 -12 -32z"/>
<path d="M8173 1743 c-17 -2 -37 -11 -43 -19 -8 -8 -14 -66 -18 -144 -4 -118
-3 -132 14 -151 14 -16 27 -20 51 -16 18 3 36 1 41 -6 6 -7 12 -82 14 -167 3
-118 8 -162 20 -185 21 -40 58 -59 100 -52 18 4 57 10 87 15 87 14 84 0 77
362 -6 283 -9 318 -25 340 -18 24 -21 25 -152 26 -74 1 -148 -1 -166 -3z m282
-55 c2 -7 5 -91 7 -186 l4 -173 -33 6 c-48 9 -87 -16 -108 -67 -40 -101 -39
-102 -45 34 -3 81 -9 132 -17 139 -7 7 -32 15 -55 18 l-43 6 -3 60 c-2 33 -1
83 3 112 7 61 2 59 173 62 82 1 114 -2 117 -11z m1 -606 c-19 -20 -21 -4 -3
35 12 27 12 27 15 4 2 -13 -3 -31 -12 -39z"/>
<path d="M3053 1370 c-94 -13 -99 -22 -108 -166 -4 -67 -4 -131 -1 -141 10
-30 49 -43 132 -43 99 0 159 16 185 49 19 24 20 34 14 131 -8 118 -15 144 -45
160 -29 16 -105 20 -177 10z m139 -62 c9 -7 20 -31 24 -52 l7 -39 -24 16 c-35
25 -91 22 -115 -5 -38 -42 -54 -77 -54 -113 0 -29 -3 -36 -17 -33 -16 3 -18
14 -15 78 1 41 5 92 8 112 l6 37 56 4 c31 2 69 4 83 5 14 1 33 -4 41 -10z"/>
<path d="M3421 1370 c-97 -14 -101 -21 -108 -176 -7 -168 -7 -168 114 -172 97
-4 158 8 195 37 22 18 23 25 20 118 -3 116 -15 169 -43 183 -29 16 -105 20
-178 10z m140 -60 c30 -17 22 -26 -20 -22 -53 5 -77 -10 -106 -68 -29 -58 -30
-71 -10 -110 l16 -30 -42 0 -42 0 7 46 c3 26 6 77 6 115 l0 68 63 4 c34 2 72
4 85 5 13 1 32 -3 43 -8z"/>
<path d="M3791 1369 c-94 -12 -99 -19 -107 -170 -8 -142 -2 -164 48 -174 75
-14 98 -45 35 -45 -18 -1 -42 -9 -54 -19 -20 -17 -23 -31 -29 -153 -7 -134 -7
-135 17 -151 31 -22 203 -24 254 -3 60 25 68 49 57 177 -9 104 -11 114 -36
136 -16 13 -40 23 -58 23 -26 0 -29 2 -18 15 7 8 32 24 56 35 29 12 48 28 54
46 14 35 -2 237 -19 258 -27 33 -86 40 -200 25z m142 -61 c10 -9 18 -36 23
-78 l7 -65 -22 20 c-39 34 -85 25 -136 -25 -25 -24 -45 -52 -45 -62 0 -18 -15
-25 -23 -10 -3 4 -2 54 2 112 l6 105 60 6 c101 10 111 9 128 -3z m12 -388 c4
-6 9 -51 12 -100 6 -96 -2 -120 -40 -120 -19 0 -19 2 6 28 56 59 21 152 -58
152 -28 0 -45 -9 -80 -41 l-45 -42 0 61 c0 55 2 61 23 65 46 9 176 7 182 -3z"/>
<path d="M4161 1369 c-96 -12 -100 -19 -107 -175 -8 -168 -8 -168 113 -172 97
-4 158 8 195 37 22 18 23 24 20 127 -4 134 -17 169 -69 183 -42 12 -60 12
-152 0z m140 -59 c10 -6 19 -19 19 -29 0 -16 -6 -18 -45 -13 -45 5 -47 3 -106
-55 l-60 -61 3 77 3 76 60 6 c99 9 106 9 126 -1z m19 -210 c0 -5 -5 -10 -11
-10 -5 0 -7 5 -4 10 3 6 8 10 11 10 2 0 4 -4 4 -10z"/>
<path d="M4533 1370 c-96 -13 -101 -21 -109 -175 -8 -169 -8 -169 113 -173 97
-4 158 8 195 37 22 18 23 25 21 118 -3 130 -9 160 -37 178 -30 20 -104 26
-183 15z m138 -60 c28 -16 25 -44 -3 -34 -53 18 -109 -3 -123 -46 -3 -10 -19
-20 -36 -22 l-30 -5 3 51 3 51 60 6 c99 9 106 9 126 -1z m23 -204 c-3 -9 -10
-16 -15 -16 -5 0 -4 9 3 20 14 22 21 20 12 -4z"/>
<path d="M4903 1370 c-94 -13 -100 -22 -108 -166 -4 -66 -5 -130 -1 -141 10
-30 49 -43 132 -43 91 0 157 15 180 42 21 22 36 138 24 177 -5 14 -11 43 -15
64 -4 23 -15 43 -29 52 -30 20 -104 26 -183 15z m143 -65 c18 -14 18 -14 -7
-15 -14 0 -43 -13 -64 -30 -21 -16 -42 -30 -47 -30 -4 0 -16 -15 -25 -34 -17
-37 -13 -75 12 -100 22 -21 19 -23 -27 -17 l-43 6 3 105 c2 58 7 108 10 112 4
4 32 9 62 11 30 2 67 4 81 5 14 1 34 -5 45 -13z"/>
<path d="M5273 1370 c-94 -13 -100 -23 -108 -162 -4 -64 -5 -127 -2 -140 9
-35 47 -48 135 -48 94 0 147 14 179 46 24 24 25 27 18 132 -9 121 -15 146 -45
162 -29 16 -105 20 -177 10z m138 -60 c10 -6 19 -21 19 -34 0 -22 -3 -23 -42
-19 -40 5 -46 2 -91 -42 -48 -48 -63 -80 -54 -115 3 -13 0 -20 -8 -20 -21 0
-23 8 -16 120 l6 105 60 6 c99 9 106 9 126 -1z"/>
<path d="M5643 1370 c-94 -13 -100 -22 -108 -166 -4 -66 -5 -130 -1 -141 10
-30 49 -43 132 -43 99 0 159 16 185 49 20 24 21 34 14 130 -7 117 -15 145 -45
161 -29 16 -105 20 -177 10z m138 -60 c10 -6 19 -17 19 -26 0 -12 -4 -13 -21
-3 -33 17 -97 -5 -112 -39 -6 -15 -22 -40 -35 -56 -18 -23 -23 -39 -20 -68 3
-30 0 -38 -11 -36 -12 3 -15 20 -12 95 4 137 -1 127 67 134 98 9 105 9 125 -1z"/>
<path d="M6018 1370 c-100 -12 -104 -19 -113 -172 -7 -125 -7 -127 17 -151 52
-52 247 -39 297 19 23 27 23 32 17 139 -8 126 -19 149 -73 164 -42 12 -48 12
-145 1z m133 -60 c33 -18 24 -40 -15 -33 -42 7 -71 -9 -92 -49 -9 -17 -32 -46
-50 -63 l-34 -32 0 42 c0 23 3 63 6 88 l7 46 56 4 c31 2 66 4 79 5 13 1 32 -3
43 -8z"/>
<path d="M6389 1370 c-30 -4 -67 -15 -82 -25 -23 -15 -27 -24 -27 -64 0 -25
-3 -83 -6 -128 -6 -77 -6 -82 18 -105 49 -50 245 -41 294 13 34 37 35 183 3
267 -17 45 -79 58 -200 42z m134 -62 c21 -11 21 -12 -13 -23 -40 -13 -138
-131 -147 -177 -3 -15 -12 -28 -19 -28 -15 0 -19 83 -8 177 l7 52 56 4 c31 2
66 4 79 5 13 1 33 -3 45 -10z"/>
<path d="M7135 1371 c-33 -4 -72 -15 -86 -24 -25 -17 -26 -22 -33 -143 -6
-104 -4 -130 8 -149 20 -30 120 -61 151 -47 13 6 44 14 69 17 28 5 60 18 77
32 28 24 29 29 28 101 0 106 -12 170 -36 193 -23 23 -91 31 -178 20z m123 -57
c39 -11 25 -29 -20 -26 -49 3 -62 -6 -105 -69 -17 -25 -38 -51 -47 -58 -19
-16 -20 -9 -10 87 l7 61 56 4 c31 2 65 4 76 5 11 1 30 -1 43 -4z m32 -204 c-6
-11 -15 -20 -20 -20 -6 0 -5 9 2 20 7 11 16 20 21 20 4 0 3 -9 -3 -20z"/>
<path d="M7505 1371 c-33 -4 -73 -16 -88 -25 -25 -17 -27 -24 -27 -80 0 -33
-3 -91 -6 -128 -6 -62 -5 -68 19 -92 24 -24 33 -26 109 -26 103 1 153 12 184
41 22 20 24 31 24 103 -1 103 -13 163 -37 187 -23 23 -91 31 -178 20z m132
-59 c7 -4 15 -22 19 -39 l6 -30 -49 4 c-30 2 -54 -1 -64 -9 -26 -22 -69 -103
-69 -131 0 -20 -5 -27 -20 -27 -23 0 -25 21 -14 153 l7 76 61 4 c34 2 72 4 86
5 14 1 31 -2 37 -6z"/>
<path d="M7875 1371 c-63 -8 -102 -26 -110 -51 -2 -8 -5 -70 -7 -138 -3 -120
-2 -124 21 -143 19 -15 39 -19 110 -19 103 0 150 12 181 45 22 23 23 29 18
141 -5 106 -8 118 -30 140 -28 28 -89 37 -183 25z m139 -67 c9 -8 16 -24 16
-35 0 -15 -7 -19 -36 -19 -30 0 -43 -8 -76 -42 -45 -49 -61 -82 -53 -109 5
-16 1 -19 -24 -19 -29 0 -31 2 -31 38 0 22 3 73 6 115 l7 76 61 4 c34 2 73 4
88 5 15 1 34 -5 42 -14z"/>
<path d="M8863 1370 c-95 -13 -100 -21 -108 -176 l-7 -131 27 -21 c23 -19 41
-22 109 -22 107 1 156 13 185 47 23 26 23 31 17 130 -8 117 -16 147 -46 163
-29 16 -105 20 -177 10z m138 -60 c29 -16 23 -30 -12 -30 -23 0 -40 -9 -63
-34 -17 -18 -41 -37 -53 -40 -12 -4 -32 -19 -43 -33 l-20 -26 0 44 c0 24 3 61
6 81 l6 37 57 4 c31 2 66 4 79 5 13 1 32 -3 43 -8z m-181 -221 c0 -6 -4 -7
-10 -4 -5 3 -10 11 -10 16 0 6 5 7 10 4 6 -3 10 -11 10 -16z"/>
<path d="M9238 1370 c-99 -12 -104 -19 -112 -171 -7 -115 -6 -127 12 -149 42
-52 252 -40 301 16 23 27 24 32 17 137 -4 60 -11 118 -17 129 -13 24 -68 48
-106 47 -15 -1 -58 -5 -95 -9z m135 -62 c9 -7 19 -26 23 -43 5 -25 4 -28 -7
-17 -7 6 -29 12 -47 12 -30 0 -43 -9 -88 -57 -42 -45 -54 -65 -54 -90 0 -18
-4 -33 -10 -33 -11 0 -13 97 -4 177 l7 52 56 4 c31 2 68 4 82 5 14 1 33 -4 42
-10z"/>
<path d="M9615 1371 c-33 -4 -73 -16 -88 -25 -24 -16 -27 -25 -27 -71 0 -28
-3 -85 -6 -126 -8 -98 7 -120 92 -130 33 -5 73 -11 90 -14 35 -8 72 8 123 51
30 25 31 29 30 102 0 106 -12 170 -36 193 -23 23 -91 31 -178 20z m133 -59 c7
-5 15 -25 19 -45 l6 -37 -42 0 c-26 0 -47 -6 -57 -17 -41 -46 -74 -98 -74
-114 0 -14 -7 -19 -25 -19 -24 0 -25 3 -25 54 0 29 3 81 6 114 l7 61 61 4 c33
2 72 4 86 5 14 1 31 -2 38 -6z"/>
<path d="M3030 981 c-72 -12 -77 -22 -85 -168 -7 -126 -7 -131 15 -153 21 -21
29 -22 139 -18 171 5 188 23 176 180 -7 110 -18 142 -51 157 -26 11 -133 13
-194 2z m178 -80 c3 -15 0 -21 -8 -16 -22 14 -81 7 -102 -11 -45 -41 -80 -105
-80 -145 1 -21 -3 -39 -9 -39 -11 0 -12 7 -10 90 2 99 10 138 29 143 9 3 53 4
97 4 76 -2 80 -3 83 -26z m3 -184 c-10 -9 -11 -8 -5 6 3 10 9 15 12 12 3 -3 0
-11 -7 -18z"/>
<path d="M3400 981 c-19 -3 -45 -13 -58 -22 -21 -15 -23 -26 -29 -151 -6 -134
-6 -135 18 -151 31 -22 203 -24 254 -3 61 26 68 49 57 178 -10 103 -13 115
-37 135 -22 20 -37 23 -98 22 -40 -1 -88 -5 -107 -8z m174 -67 c3 -9 6 -24 6
-34 0 -16 -5 -17 -28 -10 -47 13 -89 -12 -112 -65 -11 -26 -20 -62 -20 -81 0
-33 -2 -35 -27 -32 -31 3 -29 -9 -25 147 2 92 -3 88 118 90 66 1 83 -2 88 -15z"/>
<path d="M4512 983 c-402 -3 -413 -4 -433 -24 -18 -18 -21 -37 -26 -153 -6
-131 -6 -133 18 -149 21 -16 101 -17 907 -17 811 0 888 -1 933 -17 42 -15 54
-16 96 -4 26 7 75 19 107 26 92 19 100 34 92 173 -8 128 -10 138 -40 155 -22
12 -733 17 -1654 10z m1495 -77 c-27 -25 -39 -56 -34 -91 2 -15 -6 -21 -35
-26 -44 -7 -74 -30 -82 -64 -6 -22 -10 -23 -163 -30 -211 -10 -1572 0 -1583
11 -5 5 -7 54 -3 111 l6 102 61 4 c34 2 466 4 960 5 l899 2 -26 -24z m130 9
c9 -25 -2 -27 -22 -5 -17 18 -17 20 -1 20 9 0 19 -7 23 -15z"/>
<path d="M6359 983 c-65 -7 -76 -30 -84 -175 -9 -157 -6 -162 107 -172 92 -8
167 7 204 41 l27 25 -6 112 c-3 61 -9 120 -13 129 -15 41 -95 55 -235 40z
m179 -70 c2 -8 -6 -13 -23 -13 -41 0 -61 -15 -115 -87 -33 -44 -50 -76 -50
-95 0 -17 -4 -27 -10 -23 -11 7 -13 93 -4 172 8 61 9 62 118 60 54 -2 81 -6
84 -14z"/>
<path d="M7099 983 c-65 -7 -76 -30 -84 -175 -9 -174 -8 -175 200 -168 60 2
110 21 124 48 15 27 13 198 -2 242 -7 19 -23 40 -37 47 -24 12 -118 15 -201 6z
m86 -80 c-10 -16 -37 -53 -61 -83 -26 -34 -44 -68 -47 -90 -2 -23 -4 -14 -5
25 -1 33 1 83 4 112 7 57 11 60 83 62 l43 1 -17 -27z m96 -186 c-10 -9 -11 -8
-5 6 3 10 9 15 12 12 3 -3 0 -11 -7 -18z"/>
<path d="M7470 983 c-19 -3 -44 -15 -56 -27 -21 -20 -23 -33 -26 -155 -4 -165
-7 -161 139 -161 112 0 164 14 182 48 13 24 14 144 2 216 -12 72 -34 86 -130
84 -42 0 -92 -3 -111 -5z m180 -72 c18 -35 13 -52 -15 -45 -40 10 -80 -13
-115 -67 -23 -37 -31 -58 -28 -80 4 -27 2 -30 -21 -27 -32 4 -35 17 -26 134 8
107 1 101 117 103 67 1 79 -2 88 -18z"/>
<path d="M7994 980 c-240 -9 -229 -2 -237 -163 -6 -142 1 -166 52 -180 20 -5
171 -5 355 1 414 11 400 5 391 174 -6 124 -16 153 -58 168 -32 11 -212 11
-503 0z m327 -97 c-9 -27 -25 -61 -36 -77 -13 -20 -19 -44 -18 -73 l1 -43
-226 2 -227 3 -3 50 c-2 28 -1 78 3 112 l7 62 121 4 c67 1 183 4 258 5 l136 2
-16 -47z m159 -165 c-12 -10 -29 -18 -37 -18 -11 0 -11 5 5 28 10 15 25 43 33
62 l14 35 3 -45 c3 -36 -1 -48 -18 -62z"/>
<path d="M8839 983 c-65 -7 -76 -31 -84 -173 -8 -158 -6 -161 96 -171 98 -10
180 5 215 40 26 26 26 27 20 131 -8 133 -12 148 -47 165 -27 14 -110 17 -200
8z m179 -80 c3 -19 -1 -23 -22 -23 -17 0 -46 -18 -83 -52 -71 -64 -73 -65 -73
-105 0 -23 -5 -33 -15 -33 -12 0 -15 16 -15 84 0 104 8 144 29 150 9 2 52 3
96 3 75 -2 80 -3 83 -24z"/>
<path d="M9209 983 c-65 -7 -76 -30 -84 -175 -9 -158 -7 -162 113 -172 96 -8
160 5 198 41 l27 25 -7 113 c-3 62 -9 121 -12 130 -15 39 -96 53 -235 38z
m179 -75 c8 -30 7 -31 -25 -36 -40 -5 -141 -106 -149 -149 -4 -19 -12 -33 -20
-33 -15 0 -19 82 -8 177 8 60 7 60 117 62 74 1 79 0 85 -21z"/>
<path d="M9579 983 c-68 -7 -77 -30 -81 -181 -4 -166 -7 -162 139 -162 103 0
161 13 178 41 9 13 22 69 32 128 3 21 0 47 -9 65 -9 17 -19 44 -24 61 -5 16
-21 35 -34 42 -24 12 -118 15 -201 6z m174 -59 c3 -3 -20 -23 -51 -44 -31 -21
-75 -54 -97 -73 -34 -29 -40 -40 -40 -75 0 -22 -3 -38 -7 -36 -10 6 -10 79 -2
162 5 44 11 62 23 65 26 7 167 8 174 1z"/>
<path d="M9950 983 c-64 -8 -76 -33 -83 -166 -7 -123 1 -162 33 -172 40 -13
206 -7 242 8 49 21 58 42 58 134 -1 176 -21 204 -139 201 -42 0 -92 -3 -111
-5z m180 -72 c5 -11 10 -33 10 -50 l0 -29 -30 15 c-42 20 -77 7 -117 -46 -23
-29 -33 -53 -33 -78 0 -27 -4 -34 -17 -31 -24 4 -26 25 -18 134 8 107 1 101
117 103 67 1 79 -2 88 -18z"/>
</g>
</svg>
