<?xml version="1.0" standalone="no"?>
<!DOCTYPE svg PUBLIC "-//W3C//DTD SVG 20010904//EN"
 "http://www.w3.org/TR/2001/REC-SVG-20010904/DTD/svg10.dtd">
<svg version="1.0" xmlns="http://www.w3.org/2000/svg"
 width="1280.000000pt" height="855.000000pt" viewBox="0 0 1280.000000 855.000000"
 preserveAspectRatio="xMidYMid meet">
<metadata>
Created by potrace 1.15, written by Peter Selinger 2001-2017
</metadata>
<g transform="translate(0.000000,855.000000) scale(0.100000,-0.100000)"
fill="#000000" stroke="none">
<path d="M9121 8528 c-5 -13 -32 -78 -60 -145 -54 -128 -69 -188 -80 -313 l-6
-75 -80 -11 c-192 -27 -173 -27 -181 9 -18 83 -91 216 -186 339 l-98 126 -106
-28 c-59 -16 -108 -30 -109 -32 -2 -2 -12 -75 -24 -163 -19 -147 -19 -169 -7
-270 8 -60 17 -117 20 -125 5 -13 -19 -26 -111 -64 -111 -45 -118 -47 -129
-29 -72 107 -159 198 -276 287 l-128 97 -95 -56 c-52 -31 -95 -62 -95 -68 0
-7 9 -79 20 -162 19 -147 62 -293 106 -360 17 -25 24 -18 -125 -133 -60 -47
-63 -48 -81 -26 -7 8 -52 43 -98 76 -61 44 -129 80 -236 125 l-151 63 -79 -79
-79 -79 53 -129 c29 -70 59 -141 67 -157 24 -47 114 -169 141 -193 l26 -22
-74 -96 c-40 -53 -77 -98 -82 -101 -5 -3 -19 1 -31 9 -65 42 -216 86 -366 106
-85 11 -157 18 -162 15 -9 -5 -109 -178 -109 -188 0 -3 42 -62 94 -129 98
-128 203 -226 304 -282 1 -1 -20 -53 -46 -116 -40 -94 -52 -113 -68 -111 -170
27 -247 28 -400 6 -85 -11 -156 -23 -158 -25 -11 -11 -56 -213 -49 -219 115
-98 249 -189 341 -231 59 -27 115 -49 125 -49 20 0 21 -20 7 -123 -22 -149
-16 -137 -60 -137 -97 0 -226 -32 -368 -92 l-143 -60 3 -115 3 -114 141 -59
c141 -59 266 -90 361 -90 47 0 41 13 63 -137 14 -103 13 -123 -7 -123 -10 0
-66 -22 -125 -49 -92 -42 -226 -133 -341 -231 -7 -6 38 -208 49 -219 2 -2 74
-14 159 -26 141 -19 164 -20 267 -9 62 7 122 14 132 16 16 2 28 -17 68 -111
26 -63 47 -115 46 -116 -101 -56 -206 -154 -304 -282 -52 -67 -94 -126 -94
-129 0 -10 100 -183 110 -189 4 -3 77 4 161 16 150 20 302 64 366 106 12 8 26
12 31 9 5 -3 42 -48 82 -101 l74 -96 -26 -22 c-27 -24 -117 -146 -141 -193 -8
-16 -38 -87 -67 -157 l-53 -129 79 -79 79 -79 151 63 c143 60 249 124 326 195
l27 25 58 -43 c32 -24 77 -59 101 -78 41 -33 42 -35 28 -57 -44 -67 -87 -213
-106 -360 -11 -82 -20 -155 -20 -162 0 -6 43 -37 95 -68 l95 -56 128 97 c117
89 204 180 276 287 11 18 18 16 129 -29 92 -38 116 -51 111 -64 -3 -8 -12 -64
-20 -125 -12 -101 -12 -123 7 -270 12 -88 22 -161 24 -163 1 -2 50 -16 109
-32 l106 -28 98 126 c95 124 168 256 186 339 7 31 9 33 44 27 20 -3 78 -11
127 -17 l90 -12 6 -75 c11 -127 26 -185 88 -333 l60 -142 113 -3 113 -3 62
148 c58 140 83 239 95 378 l3 30 120 16 c66 9 123 15 128 12 4 -2 7 -12 7 -21
0 -9 20 -62 45 -116 40 -89 82 -151 231 -341 8 -11 28 -9 113 14 57 15 107 34
111 42 4 8 15 82 25 164 16 127 17 166 7 255 -6 58 -14 114 -17 126 -6 18 6
26 110 69 63 26 117 46 118 44 2 -2 11 -17 21 -33 55 -88 140 -175 256 -264
69 -52 130 -95 136 -95 6 0 52 23 103 52 89 52 91 54 86 84 -3 18 -12 88 -20
157 -15 123 -38 201 -93 318 -13 30 -20 57 -16 61 45 38 185 141 192 141 5 0
17 -9 28 -21 54 -60 185 -139 325 -197 l147 -60 80 82 79 81 -61 145 c-58 139
-140 274 -195 324 -12 11 -21 23 -21 28 0 8 106 151 142 193 5 6 19 3 37 -8
76 -45 209 -85 336 -101 72 -10 144 -20 161 -22 30 -6 33 -3 76 73 25 43 50
87 56 99 9 17 -2 37 -86 147 -93 121 -201 225 -274 263 -16 8 -28 18 -28 22 0
4 21 58 47 120 42 102 49 113 67 107 12 -4 71 -12 131 -19 100 -12 124 -11
262 8 83 12 155 25 160 29 4 5 20 53 34 108 l27 100 -67 53 c-157 125 -201
153 -296 193 -55 23 -107 44 -117 47 -18 5 -18 2 6 171 l11 80 45 3 c112 7
220 35 363 94 l147 61 0 112 0 112 -147 61 c-142 59 -252 87 -368 94 l-40 3
-11 80 c-24 169 -24 166 -6 171 10 3 62 24 117 47 95 40 179 95 316 209 l47
38 -27 99 c-14 55 -30 103 -35 108 -4 4 -76 17 -160 29 -137 18 -164 19 -262
8 -60 -7 -118 -16 -130 -19 -18 -6 -26 5 -67 107 -26 62 -47 116 -47 120 0 4
12 14 28 22 73 38 181 142 274 263 84 110 95 130 86 147 -6 12 -31 56 -56 99
-43 76 -46 79 -76 73 -17 -3 -89 -13 -160 -22 -126 -16 -260 -56 -338 -102
-18 -10 -31 -13 -36 -7 -36 42 -142 185 -142 193 0 5 9 17 21 28 55 50 137
185 195 324 l61 145 -79 81 -80 82 -147 -60 c-140 -58 -271 -137 -325 -197
-11 -12 -23 -21 -28 -21 -7 0 -147 103 -192 141 -4 4 3 31 16 61 55 117 78
195 93 318 8 69 17 139 20 157 5 30 3 32 -86 84 -51 29 -97 52 -103 52 -6 0
-67 -43 -136 -95 -97 -74 -141 -116 -197 -187 -39 -50 -73 -96 -75 -103 -3 -8
-42 4 -122 37 -105 43 -117 51 -111 69 3 12 11 68 17 126 10 89 9 128 -7 255
-10 83 -21 156 -25 164 -6 12 -210 76 -216 68 -1 -1 -43 -56 -94 -122 -89
-115 -158 -237 -185 -330 -12 -40 -13 -40 -56 -37 -24 2 -80 9 -124 15 -79 12
-80 12 -83 42 -12 138 -37 238 -95 378 l-61 147 -113 0 c-108 0 -114 -1 -122
-22z m205 -1613 c20 -50 36 -110 41 -155 l8 -75 80 -12 c44 -6 86 -12 92 -12
7 -1 16 11 19 27 14 55 53 130 99 190 27 34 53 62 58 62 5 0 27 -5 47 -11 l37
-11 12 -87 c10 -76 6 -152 -11 -220 -2 -9 26 -27 82 -52 75 -33 86 -35 95 -22
33 52 98 123 154 167 l63 50 37 -20 36 -20 -3 -79 c-2 -79 -24 -159 -58 -211
-10 -14 -13 -28 -8 -33 5 -4 40 -32 78 -61 67 -53 69 -53 85 -34 31 39 100 85
172 114 39 17 77 30 84 30 6 0 24 -13 40 -30 l28 -30 -28 -72 c-29 -75 -56
-119 -108 -175 l-30 -32 57 -73 c32 -40 60 -73 64 -72 4 0 34 13 67 28 72 34
235 62 248 43 39 -58 40 -67 10 -110 -36 -54 -134 -151 -170 -169 -32 -16 -32
-16 9 -114 l31 -75 46 8 c58 10 172 10 232 0 45 -8 47 -10 59 -53 8 -26 9 -48
4 -53 -96 -79 -202 -141 -244 -141 -10 0 -21 -4 -24 -8 -3 -5 0 -50 6 -99 l11
-90 76 -6 c55 -4 99 -16 156 -40 l80 -34 0 -48 0 -48 -78 -33 c-55 -24 -101
-36 -156 -40 l-78 -7 -11 -90 c-6 -49 -9 -94 -6 -99 3 -4 14 -8 25 -8 39 0
152 -65 243 -141 5 -5 4 -27 -4 -52 -10 -37 -17 -46 -41 -51 -75 -15 -162 -18
-224 -7 -37 7 -69 11 -71 9 -1 -2 -19 -40 -38 -86 l-35 -82 55 -36 c54 -36
100 -83 149 -154 28 -40 26 -50 -12 -107 -13 -19 -176 9 -248 43 -33 15 -63
28 -67 28 -4 1 -32 -32 -64 -72 l-57 -73 30 -32 c52 -56 79 -100 108 -175 l28
-72 -28 -30 c-16 -17 -34 -30 -40 -30 -7 0 -45 13 -84 30 -72 29 -141 75 -172
114 -16 19 -18 19 -85 -34 -38 -29 -73 -57 -78 -61 -5 -5 -2 -19 8 -33 34 -52
56 -132 58 -211 l3 -79 -36 -20 -36 -20 -60 47 c-65 50 -116 103 -145 153
l-19 32 -87 -38 c-58 -24 -86 -42 -84 -51 17 -68 21 -144 11 -221 l-12 -88
-36 -10 c-54 -15 -54 -15 -106 52 -46 60 -85 135 -99 190 -7 30 4 30 -146 9
l-45 -6 -8 -75 c-5 -45 -21 -105 -41 -155 l-34 -80 -46 -3 -47 -3 -29 65 c-33
72 -50 139 -53 207 l-2 43 -90 12 c-94 13 -105 12 -105 -11 0 -46 -127 -253
-155 -254 -5 -1 -27 4 -47 9 -32 9 -38 16 -45 48 -10 50 -10 197 0 247 l8 41
-88 36 -88 36 -18 -34 c-21 -41 -108 -129 -165 -168 l-42 -29 -36 19 c-20 10
-38 22 -40 26 -16 25 42 268 67 284 21 13 4 36 -63 88 l-72 56 -30 -28 c-55
-51 -99 -79 -174 -107 l-73 -28 -33 32 -34 33 33 79 c35 83 94 173 121 183 17
7 9 21 -74 124 -33 41 -35 42 -58 27 -40 -26 -125 -53 -204 -64 -72 -10 -76
-9 -93 12 -34 44 -32 63 15 126 45 60 115 126 156 144 28 13 28 16 -13 112
-21 49 -39 79 -47 77 -71 -19 -146 -24 -220 -13 -45 6 -85 14 -90 19 -4 4 -10
25 -13 47 -7 40 -6 41 54 88 64 50 159 97 194 97 19 0 19 4 13 78 -11 125 -7
118 -92 126 -52 4 -99 16 -152 39 l-77 33 0 49 0 49 77 33 c53 23 100 35 152
39 85 8 81 1 92 127 6 73 6 77 -13 77 -35 0 -130 47 -194 97 -60 47 -61 48
-54 88 3 22 9 43 13 47 5 5 45 13 90 19 74 11 149 6 220 -13 8 -2 26 28 47 77
41 96 41 99 13 112 -41 18 -111 84 -156 144 -47 63 -49 83 -15 126 17 20 20
21 103 8 89 -13 151 -32 193 -60 24 -16 26 -15 59 27 83 103 91 117 74 124
-27 10 -86 100 -121 183 l-33 79 34 33 33 32 73 -28 c75 -28 119 -56 174 -107
l30 -28 72 56 c67 52 84 75 63 88 -25 16 -83 259 -67 284 2 4 20 16 40 26 l36
19 42 -29 c58 -39 144 -127 165 -169 l18 -33 88 36 88 36 -8 40 c-10 51 -10
198 0 248 7 32 13 39 45 48 20 5 42 10 47 9 28 -1 155 -208 155 -254 0 -23 12
-24 105 -12 l90 12 2 44 c3 68 20 135 53 207 l29 65 47 -3 46 -3 34 -80z"/>
<path d="M1425 6688 c-15 -35 -29 -87 -32 -116 -6 -56 -4 -54 -78 -66 -28 -4
-32 -1 -62 62 -18 37 -47 85 -66 106 l-33 39 -45 -14 c-43 -14 -44 -15 -52
-69 -5 -30 -6 -85 -3 -122 l5 -67 -45 -17 -46 -17 -39 46 c-22 25 -61 62 -89
82 l-49 36 -42 -21 -41 -21 6 -57 c7 -59 32 -149 47 -168 6 -7 -6 -23 -32 -44
l-41 -32 -44 31 c-45 33 -145 81 -167 81 -16 0 -67 -52 -67 -67 0 -22 58 -139
83 -169 15 -18 27 -36 27 -40 0 -5 -13 -24 -29 -43 l-28 -35 -59 21 c-33 12
-87 24 -121 28 l-62 7 -21 -42 -21 -41 36 -49 c19 -26 56 -66 82 -88 l47 -39
-18 -46 -17 -45 -53 5 c-30 3 -84 2 -120 -2 -70 -7 -78 -13 -90 -71 -7 -29 -3
-34 55 -77 34 -26 81 -54 104 -63 42 -16 43 -16 38 -57 -6 -49 -25 -67 -67
-67 -17 0 -62 -13 -101 -29 l-70 -28 -3 -50 -3 -49 65 -27 c35 -14 87 -29 116
-33 55 -7 55 -8 64 -67 l5 -38 -62 -29 c-34 -16 -82 -47 -106 -67 l-43 -38 12
-42 c11 -37 18 -44 49 -50 20 -4 75 -7 122 -7 l87 1 16 -34 c21 -45 20 -58 -7
-76 -34 -22 -78 -68 -110 -115 l-29 -41 23 -40 22 -40 51 6 c28 3 81 15 118
27 l68 22 18 -20 c47 -54 47 -52 10 -103 -19 -27 -45 -74 -58 -106 l-23 -59
35 -35 35 -35 68 31 c38 17 83 43 101 56 18 14 37 25 41 25 5 0 24 -13 43 -28
l34 -29 -22 -59 c-11 -32 -24 -86 -27 -119 l-6 -60 42 -22 42 -23 63 51 c35
28 64 54 64 57 0 4 11 19 25 34 l24 28 44 -19 44 -19 -4 -69 c-2 -37 -1 -92 4
-122 l8 -55 46 -11 46 -12 42 53 c23 30 52 77 63 105 l21 51 46 -7 c25 -4 49
-9 52 -11 3 -2 9 -27 12 -56 4 -29 19 -81 33 -115 l27 -63 42 0 c24 0 47 6 52
13 21 27 54 123 59 174 5 39 11 53 23 53 9 0 32 3 51 6 34 5 36 4 54 -41 10
-26 38 -73 62 -105 l44 -58 38 10 c62 16 66 25 67 150 l1 112 43 18 c24 10 45
17 46 16 32 -48 70 -89 116 -124 l58 -45 41 26 c41 26 41 26 35 73 -9 65 -24
122 -42 156 -14 28 -14 30 14 52 45 37 60 38 101 6 20 -17 66 -42 102 -56 l64
-26 34 33 33 34 -24 61 c-14 33 -39 81 -57 107 -30 43 -31 47 -16 68 43 61 39
59 89 38 25 -11 67 -22 94 -26 26 -3 58 -8 70 -11 18 -3 28 4 48 37 25 39 26
41 9 67 -9 15 -47 57 -84 93 l-66 65 16 40 17 39 99 1 c135 1 148 6 162 57
l11 42 -42 37 c-39 35 -135 88 -158 88 -9 0 -3 83 7 101 2 3 25 9 51 13 27 3
78 18 116 33 l67 26 0 48 c0 47 -2 49 -36 64 -68 28 -122 44 -159 47 -40 2
-41 3 -49 64 l-6 41 50 21 c28 12 75 40 105 64 47 36 53 46 48 68 -16 65 -19
68 -82 75 -34 4 -89 5 -122 3 l-61 -3 -18 45 -17 45 43 33 c24 19 62 58 84 88
l41 54 -23 41 -22 40 -61 -6 c-33 -3 -86 -16 -119 -27 l-59 -21 -28 34 c-16
19 -29 38 -29 43 0 4 13 25 29 45 16 20 42 67 57 104 l28 67 -29 30 c-16 17
-34 30 -41 30 -24 0 -121 -45 -166 -78 l-48 -34 -39 32 -40 31 20 46 c27 64
44 184 27 195 -59 40 -68 41 -109 12 -49 -34 -77 -60 -111 -103 l-26 -34 -44
16 -43 17 0 97 c0 134 -5 147 -57 162 l-43 13 -37 -43 c-21 -24 -51 -71 -67
-105 l-29 -60 -48 5 -48 6 -11 60 c-6 33 -21 86 -34 118 l-23 57 -48 0 -47 0
-28 -62z m100 -612 c9 -13 19 -43 23 -67 7 -41 10 -44 44 -50 36 -6 37 -5 65
50 28 54 55 73 75 53 5 -5 10 -39 9 -75 0 -64 0 -65 31 -76 29 -10 34 -9 76
34 24 25 50 45 57 45 36 0 40 -59 9 -122 -13 -25 -12 -28 17 -49 25 -18 35
-20 48 -11 9 7 35 22 59 34 38 20 44 20 57 7 14 -13 14 -19 1 -50 -8 -19 -23
-45 -34 -59 l-20 -25 23 -29 22 -28 47 16 c58 20 80 20 96 1 10 -12 8 -21 -14
-50 -15 -19 -36 -39 -46 -45 -23 -12 -25 -28 -8 -65 10 -22 16 -25 40 -20 42
10 105 -4 113 -23 8 -21 -45 -68 -88 -78 -27 -6 -28 -8 -22 -42 9 -49 12 -52
42 -52 50 0 93 -22 93 -47 0 -26 -28 -41 -92 -50 -26 -4 -38 -11 -38 -22 0 -9
-3 -25 -6 -37 -4 -16 2 -24 33 -38 108 -49 107 -88 -2 -96 -63 -5 -68 -7 -79
-34 -11 -28 -10 -32 37 -77 42 -41 47 -50 38 -67 -9 -17 -18 -20 -49 -15 -20
3 -49 12 -64 19 -25 13 -28 12 -52 -18 -25 -32 -25 -33 -6 -53 10 -11 26 -38
35 -60 16 -36 16 -40 0 -51 -20 -15 -50 -5 -102 33 l-32 23 -29 -25 c-28 -24
-29 -27 -17 -53 7 -15 16 -44 19 -64 6 -31 3 -39 -14 -48 -17 -9 -27 -4 -68
37 -48 48 -49 48 -80 36 -32 -13 -32 -14 -32 -82 0 -59 -3 -69 -19 -74 -24 -6
-54 24 -76 76 -16 40 -17 40 -64 31 -26 -5 -31 -11 -31 -34 0 -46 -28 -100
-51 -100 -23 0 -49 52 -49 98 0 25 -5 30 -31 36 -51 10 -57 8 -64 -22 -9 -41
-56 -95 -76 -87 -19 7 -32 69 -23 113 6 28 3 32 -27 45 -34 13 -34 13 -81 -35
-42 -43 -50 -48 -69 -38 -18 10 -20 18 -15 48 4 21 12 50 18 66 11 26 9 31
-17 52 l-29 23 -27 -20 c-15 -11 -43 -26 -62 -34 -31 -13 -37 -13 -48 1 -10
12 -9 23 9 57 12 23 27 49 34 58 17 25 -26 83 -51 69 -36 -19 -105 -29 -118
-18 -22 18 -15 34 33 82 45 44 46 47 34 76 -12 29 -14 30 -81 30 -61 0 -68 2
-74 22 -8 24 17 49 75 74 33 13 35 17 32 54 -4 37 -6 40 -36 40 -41 1 -100 30
-104 52 -4 19 46 44 100 51 29 3 34 7 39 41 6 34 4 39 -20 47 -39 15 -91 58
-91 75 0 22 49 37 102 30 46 -5 47 -4 58 28 10 31 8 35 -35 78 -47 48 -50 54
-35 78 9 14 46 10 125 -14 14 -4 25 1 39 20 18 25 18 28 2 53 -9 14 -24 41
-32 60 -14 30 -14 35 0 49 14 14 19 14 56 -3 22 -10 45 -24 51 -32 15 -18 30
-16 56 6 l23 19 -17 66 c-16 59 -16 68 -3 76 24 15 30 13 78 -35 44 -44 46
-45 79 -34 33 10 34 13 28 45 -8 44 4 104 22 111 20 8 53 -25 74 -73 18 -40
20 -41 56 -35 35 6 38 9 44 46 14 90 43 119 74 71z"/>
<path d="M3967 4733 c-31 -53 -82 -203 -91 -273 l-12 -85 -79 -11 c-44 -6 -81
-11 -81 -10 -1 0 -16 36 -34 78 -25 63 -111 192 -160 242 -6 6 -129 -17 -147
-29 -2 -1 -10 -48 -18 -106 -12 -80 -13 -124 -6 -189 5 -47 8 -87 6 -91 -2 -3
-36 -18 -76 -34 -53 -22 -74 -26 -77 -17 -10 31 -109 135 -183 192 l-82 64
-63 -35 c-73 -39 -71 -33 -53 -170 11 -80 49 -199 72 -227 7 -9 7 -16 1 -20
-5 -4 -36 -27 -68 -51 -40 -31 -62 -42 -71 -35 -7 5 -38 29 -70 53 -32 24
-102 62 -157 84 l-99 40 -50 -49 c-27 -26 -49 -53 -49 -58 0 -36 80 -205 127
-266 l53 -71 -47 -62 c-25 -34 -47 -63 -48 -64 -1 -2 -35 11 -75 28 -45 19
-112 37 -170 45 -127 18 -135 18 -148 -8 -6 -13 -22 -41 -36 -63 l-24 -40 66
-87 c37 -48 96 -110 132 -139 36 -28 66 -52 68 -54 4 -3 -49 -127 -61 -142 -6
-8 -16 -9 -33 -3 -39 15 -172 16 -265 1 l-87 -13 -16 -57 c-9 -32 -16 -65 -16
-74 0 -28 157 -143 243 -179 l79 -32 -7 -66 c-10 -99 -5 -94 -98 -107 -56 -8
-117 -25 -185 -54 l-103 -43 3 -75 3 -74 90 -39 c84 -37 237 -74 256 -62 14 8
27 -30 34 -104 6 -60 5 -72 -7 -72 -35 0 -155 -65 -232 -126 l-83 -65 18 -64
c10 -36 20 -69 23 -73 3 -5 53 -15 112 -22 95 -11 188 -9 250 6 18 5 25 -5 53
-72 28 -65 30 -79 18 -86 -71 -39 -247 -231 -247 -269 0 -13 57 -116 69 -123
18 -12 222 26 295 55 l78 31 24 -28 c13 -16 35 -46 50 -66 l26 -36 -46 -57
c-51 -62 -70 -97 -111 -203 l-28 -73 52 -53 53 -54 97 40 c59 24 125 60 168
92 l72 54 65 -50 c65 -50 65 -51 51 -78 -34 -67 -56 -142 -67 -237 -7 -64 -8
-107 -2 -112 5 -5 34 -23 64 -40 l55 -30 83 63 c80 61 123 105 170 173 l22 32
72 -30 c39 -16 73 -31 75 -32 1 -2 -2 -41 -8 -88 -7 -65 -6 -107 5 -187 8 -57
16 -106 19 -108 2 -3 35 -13 72 -24 58 -17 70 -17 79 -5 118 152 149 204 180
299 5 16 13 17 54 12 129 -18 122 -15 122 -50 0 -62 21 -145 60 -238 l39 -93
77 0 78 0 43 106 c30 74 45 127 49 178 8 83 9 84 112 95 59 7 64 6 69 -14 14
-52 76 -162 131 -232 l61 -76 58 15 c32 8 65 19 74 23 24 13 43 203 30 305 -5
44 -9 80 -8 81 1 1 34 15 73 32 l72 30 54 -69 c31 -39 92 -97 141 -134 l86
-65 60 35 c33 20 62 39 64 43 3 4 -2 52 -9 107 -13 96 -43 197 -71 241 -12 18
-8 24 53 71 l66 50 69 -51 c39 -29 113 -69 170 -93 l101 -42 49 46 c27 25 49
54 49 63 0 38 -76 198 -126 266 l-52 70 44 59 c24 32 46 60 48 62 3 3 41 -9
86 -26 51 -20 121 -37 188 -46 59 -7 107 -13 108 -12 0 1 18 31 38 65 l36 64
-66 84 c-58 75 -163 175 -194 186 -7 2 1 31 22 81 28 67 35 77 53 73 102 -25
347 -9 365 23 4 9 15 42 23 74 l15 57 -83 65 c-77 60 -197 125 -232 125 -12 0
-13 11 -7 67 8 77 20 117 33 109 18 -12 171 25 256 61 l90 39 3 76 3 75 -102
42 c-67 28 -130 46 -185 54 -93 13 -87 5 -100 118 l-6 55 72 28 c88 35 263
161 256 185 -3 9 -12 41 -21 72 l-16 57 -82 13 c-92 14 -215 14 -265 0 -36
-11 -41 -5 -81 97 l-20 50 37 25 c64 44 110 90 171 171 l61 79 -32 56 c-17 31
-34 60 -39 65 -21 24 -316 -39 -353 -75 -17 -15 -23 -11 -76 57 l-53 65 25 27
c50 54 88 119 127 213 l39 97 -54 53 -53 52 -103 -42 c-63 -27 -126 -61 -165
-92 -34 -27 -65 -49 -69 -49 -9 0 -124 91 -124 98 0 4 13 39 29 77 16 40 33
110 40 160 7 50 14 100 17 112 3 18 -6 28 -61 58 -38 22 -70 33 -77 29 -86
-51 -213 -171 -257 -243 -7 -11 -22 -9 -80 14 -40 16 -74 31 -76 35 -2 3 1 40
7 81 10 71 -4 271 -21 296 -7 11 -139 49 -145 42 -2 -2 -32 -40 -66 -84 -57
-74 -120 -190 -120 -221 0 -21 -11 -22 -95 -10 l-79 11 -12 90 c-8 65 -23 115
-51 180 l-39 90 -76 3 c-42 2 -78 -1 -81 -5z m132 -1075 c12 -28 24 -75 27
-104 6 -48 9 -52 37 -58 16 -3 44 -6 61 -6 28 0 33 6 54 53 12 28 37 69 55 90
27 33 36 38 59 32 15 -4 30 -16 34 -27 6 -20 7 -144 2 -181 -2 -14 11 -24 52
-42 51 -22 56 -23 65 -7 18 31 126 132 141 132 9 0 25 -5 36 -11 18 -10 20
-17 14 -67 -4 -30 -15 -75 -26 -100 -11 -24 -20 -48 -20 -52 0 -4 21 -24 46
-43 l46 -36 42 33 c22 19 64 43 92 55 46 18 54 18 73 5 11 -8 21 -21 21 -29 0
-25 -40 -107 -71 -146 -32 -41 -32 -43 13 -100 l28 -37 57 23 c32 12 79 25
105 29 45 5 49 4 63 -23 14 -29 14 -31 -24 -79 -22 -27 -55 -60 -73 -73 -18
-12 -35 -24 -37 -25 -2 -2 6 -27 18 -56 l21 -53 105 0 c112 0 125 -5 125 -51
0 -28 -77 -88 -136 -105 l-46 -14 6 -44 c3 -24 6 -52 6 -61 0 -13 12 -19 50
-24 28 -4 75 -16 105 -28 52 -20 55 -23 55 -55 0 -31 -4 -36 -47 -54 -27 -11
-72 -23 -101 -26 -29 -3 -54 -9 -56 -12 -2 -3 -7 -31 -11 -62 l-7 -56 49 -18
c74 -28 132 -75 133 -106 0 -15 -7 -32 -15 -39 -16 -13 -145 -19 -186 -7 -25
6 -28 3 -49 -54 -19 -51 -21 -62 -9 -69 40 -23 77 -57 107 -97 33 -43 33 -45
17 -70 -16 -24 -21 -25 -72 -19 -31 4 -77 16 -104 28 -27 11 -51 19 -52 17 -2
-2 -18 -23 -35 -45 -18 -23 -32 -45 -32 -48 0 -3 15 -26 34 -50 19 -25 42 -65
51 -91 17 -43 17 -46 0 -65 -10 -11 -24 -20 -31 -20 -23 0 -122 51 -149 76
-14 13 -29 24 -32 24 -3 0 -24 -14 -47 -32 -22 -17 -43 -33 -45 -35 -2 -1 6
-26 17 -55 12 -29 24 -76 28 -105 6 -47 4 -52 -20 -68 -25 -17 -27 -16 -74 19
-27 19 -62 54 -77 76 -19 28 -33 39 -44 35 -97 -35 -102 -39 -94 -70 10 -44 5
-165 -7 -180 -6 -7 -22 -15 -36 -18 -21 -4 -31 4 -65 51 -21 31 -45 73 -51 94
l-11 39 -56 -7 c-31 -3 -59 -8 -62 -10 -4 -2 -10 -30 -13 -61 -10 -83 -44
-147 -79 -151 -24 -3 -30 2 -52 49 -13 29 -27 77 -31 106 -3 29 -9 55 -13 57
-3 2 -32 7 -63 10 -50 6 -58 5 -58 -9 0 -22 -37 -93 -71 -136 -23 -29 -34 -35
-55 -31 -36 7 -47 42 -42 144 l4 87 -55 21 -56 21 -15 -22 c-29 -44 -59 -76
-99 -103 -39 -28 -41 -28 -67 -11 -24 15 -25 20 -19 68 4 29 17 75 30 104 l24
52 -50 37 -49 36 -39 -31 c-38 -30 -121 -71 -145 -71 -7 0 -21 9 -31 20 -17
19 -17 22 5 74 12 30 37 72 54 93 l33 37 -36 48 c-19 26 -38 48 -42 48 -3 0
-20 -7 -38 -16 -18 -9 -61 -21 -97 -27 -64 -11 -66 -11 -84 13 -14 19 -16 29
-8 44 17 32 98 115 119 121 24 8 24 21 -3 84 -12 31 -26 50 -33 47 -30 -11
-104 -16 -150 -9 -42 7 -51 12 -60 37 -9 26 -6 31 30 62 22 19 64 44 93 56 56
23 56 25 46 100 l-6 45 -57 6 c-31 4 -78 16 -104 27 -42 19 -47 24 -47 54 0
32 3 35 58 54 31 12 78 24 103 28 46 6 47 6 53 51 9 69 8 83 -9 83 -46 0 -165
83 -165 114 0 46 13 51 126 52 l107 1 18 44 c25 60 24 64 -16 89 -20 12 -53
45 -75 73 -37 49 -38 52 -24 79 13 26 17 27 62 22 26 -4 73 -17 105 -29 l57
-23 35 43 c19 23 35 45 35 49 0 3 -15 27 -33 53 -19 27 -42 68 -51 92 -17 44
-17 45 6 67 l23 22 52 -20 c29 -11 70 -36 92 -54 l39 -34 50 39 50 40 -23 48
c-12 26 -26 72 -29 102 -6 44 -4 55 11 67 10 7 25 14 34 14 20 0 115 -84 138
-121 l16 -27 54 22 54 22 1 106 c1 58 4 109 7 112 3 3 19 8 35 11 25 5 33 0
62 -40 18 -25 41 -66 50 -90 15 -40 20 -45 48 -45 17 0 45 3 62 6 27 6 30 10
36 58 4 28 16 75 28 104 20 47 25 52 54 52 28 0 33 -5 53 -52z"/>
</g>
</svg>
